<svg width="837" height="671" viewBox="0 0 837 671" fill="none" xmlns="http://www.w3.org/2000/svg">
<g filter="url(#filter0_d)">
<circle cx="309" cy="278" r="108" fill="white"/>
</g>
<g filter="url(#filter1_d)">
<circle cx="713" cy="116" r="108" fill="white"/>
</g>
<path d="M713 186C751.66 186 783 154.66 783 116C783 77.3401 751.66 46 713 46C674.34 46 643 77.3401 643 116C643 154.66 674.34 186 713 186Z" fill="#009999"/>
<path d="M677.291 98.745V144.438H669.25V83.1875L711.723 113.931V144.438H703.681V117.851L677.291 98.745ZM722.319 117.851V144.438H714.277V113.931L756.75 83.1875V144.438H748.709V98.745L722.319 117.851Z" fill="white"/>
<g filter="url(#filter2_d)">
<circle cx="726" cy="395" r="90" fill="white"/>
</g>
<path d="M726 452C757.48 452 783 426.48 783 395C783 363.52 757.48 338 726 338C694.52 338 669 363.52 669 395C669 426.48 694.52 452 726 452Z" fill="#457EEF"/>
<path d="M732.251 423.5C728.087 423.5 725.052 422.542 723.146 420.565C721.24 418.587 720.318 416.518 720.318 414.235C720.318 413.429 720.473 412.716 720.836 412.155C721.147 411.595 721.603 411.146 722.172 410.841C722.742 410.535 723.457 410.331 724.285 410.331C725.114 410.331 725.829 410.484 726.398 410.841C726.968 411.146 727.424 411.595 727.735 412.155C728.045 412.716 728.253 413.419 728.253 414.235C728.253 415.244 727.994 416.059 727.528 416.661C727.062 417.272 726.45 417.721 725.777 417.925C726.347 418.679 727.269 419.239 728.501 419.596C729.734 419.953 730.967 420.106 732.21 420.106C733.96 420.106 735.504 419.648 736.892 418.74C738.28 417.833 739.305 416.467 739.979 414.694C740.652 412.92 740.952 410.902 740.952 408.618C740.952 406.142 740.59 404.062 739.875 402.339C739.15 400.566 738.124 399.251 736.736 398.445C735.348 397.589 733.856 397.181 732.209 397.181C731.132 397.181 729.848 397.64 728.252 398.496L725.352 399.862V398.445L738.466 381.239H720.318V399.108C720.318 400.576 720.629 401.789 721.292 402.757C721.965 403.715 722.991 404.174 724.327 404.174C725.404 404.174 726.388 403.817 727.362 403.114C728.336 402.4 729.165 401.544 729.879 400.586C729.983 400.382 730.086 400.229 730.19 400.178C730.345 400.076 730.449 400.025 730.604 400.025C730.863 400.025 731.122 400.127 731.474 400.382C731.785 400.739 731.94 401.136 731.94 401.595C731.94 401.799 731.837 402.105 731.785 402.502C731.06 404.174 730.035 405.438 728.698 406.294C727.362 407.15 725.922 407.609 724.327 407.609C720.37 407.609 717.687 406.855 716.144 405.336C714.652 403.817 713.886 401.738 713.886 399.159V381.239H704.625V377.896H713.937V370.302L711.824 368.223V366.5H717.998L720.308 367.662V377.845L744.329 377.794L746.691 380.118L731.992 394.654C732.862 394.297 733.795 394.093 734.769 393.991C736.364 393.991 738.166 394.501 740.113 395.51C742.123 396.468 743.667 397.834 744.744 399.557C745.821 401.279 746.546 402.9 746.857 404.47C747.167 406.04 747.375 407.405 747.375 408.669C747.375 411.452 746.753 414.031 745.572 416.416C744.392 418.791 742.589 420.615 740.124 421.777C737.7 422.939 735.079 423.5 732.251 423.5Z" fill="white"/>
<g filter="url(#filter3_d)">
<circle cx="170" cy="476" r="80" fill="white"/>
</g>
<path d="M309 348C347.66 348 379 316.66 379 278C379 239.34 347.66 208 309 208C270.34 208 239 239.34 239 278C239 316.66 270.34 348 309 348Z" fill="#222222"/>
<path d="M338.462 243H350.128L325.858 268.173C317.073 277.285 302.83 277.285 294.045 268.173L269.775 243H281.44L299.877 262.123C305.441 267.894 314.462 267.894 320.026 262.123L338.462 243Z" fill="white"/>
<path d="M281.29 313H269.625L294.044 287.672C302.829 278.56 317.073 278.56 325.858 287.672L350.277 313H338.612L320.025 293.722C314.461 287.951 305.44 287.951 299.877 293.722L281.29 313Z" fill="white"/>
<g filter="url(#filter4_d)">
<circle cx="438" cy="88" r="80" fill="white"/>
</g>
<path d="M438 136C464.51 136 486 114.51 486 88C486 61.4903 464.51 40 438 40C411.49 40 390 61.4903 390 88C390 114.51 411.49 136 438 136Z" fill="#ECB244"/>
<path d="M435.288 99.538H454.179V109.588H442.554C442.746 112.462 442.845 115.129 443.037 118H433.254V109.69H421.626C421.626 106.411 421.239 103.129 421.821 100.051C422.112 98.41 423.855 96.973 424.92 95.539C428.605 90.9344 432.319 86.3533 436.062 81.796C437.517 80.05 438.969 78.409 440.616 76.462H422.496V66.412H433.254V58H442.65V66.205H454.374C454.374 69.589 454.761 72.871 454.179 75.949C453.888 77.59 452.145 79.027 450.984 80.461C447.299 85.0657 443.585 89.6467 439.842 94.204C438.381 96.0294 436.862 97.8083 435.288 99.538V99.538Z" fill="white"/>
<g filter="url(#filter5_d)">
<circle cx="545" cy="276" r="74" fill="white"/>
</g>
<path d="M545 320C569.301 320 589 300.301 589 276C589 251.699 569.301 232 545 232C520.699 232 501 251.699 501 276C501 300.301 520.699 320 545 320Z" fill="#49C1BF"/>
<path d="M525.75 252.023L556.314 266.826L564.137 263.3L533.7 248.5L525.75 252.023Z" fill="white" fill-opacity="0.304"/>
<path d="M556.314 266.791L564.139 263.267V271.146L556.314 274.67V266.791ZM556.314 303.322V278.744L564.139 275.182V299.798L556.314 303.322Z" fill="white" fill-opacity="0.646"/>
<path d="M525.75 252.031V259.998L546.906 270.275L525.75 280.752V288.606L556.314 303.382V295.479L535.557 285.383L556.314 274.711V266.832L525.75 252.031Z" fill="white"/>
<g filter="url(#filter6_d)">
<circle cx="463" cy="507" r="140" fill="white"/>
</g>
<path d="M463 607C518.228 607 563 562.228 563 507C563 451.772 518.228 407 463 407C407.772 407 363 451.772 363 507C363 562.228 407.772 607 463 607Z" fill="#627EEA"/>
<path d="M462.989 432V485.139L506.722 505.208L462.989 432Z" fill="white" fill-opacity="0.602"/>
<path d="M462.988 432L419.25 505.208L462.988 485.139V432Z" fill="white"/>
<path d="M462.989 539.643V575.75L506.751 513.571L462.989 539.643Z" fill="white" fill-opacity="0.602"/>
<path d="M462.988 575.75V539.637L419.25 513.571L462.988 575.75Z" fill="white"/>
<path d="M462.989 531.286L506.722 505.208L462.989 485.151V531.286Z" fill="white" fill-opacity="0.2"/>
<path d="M419.25 505.208L462.988 531.286V485.151L419.25 505.208Z" fill="white" fill-opacity="0.602"/>
<g filter="url(#filter7_d)">
<circle cx="96" cy="169" r="80" fill="white"/>
</g>
<path d="M96 217C122.51 217 144 195.51 144 169C144 142.49 122.51 121 96 121C69.4903 121 48 142.49 48 169C48 195.51 69.4903 217 96 217Z" fill="#F7931A"/>
<path d="M117.096 163.06C118.038 156.772 113.247 153.391 106.701 151.135L108.825 142.615L103.641 141.325L101.571 149.62C100.209 149.278 98.811 148.96 97.416 148.642L99.501 140.293L94.317 139L92.193 147.517C91.065 147.259 89.955 147.007 88.881 146.737L88.887 146.71L81.735 144.925L80.355 150.463C80.355 150.463 84.204 151.345 84.123 151.399C86.223 151.924 86.601 153.313 86.538 154.417L84.12 164.122C84.264 164.158 84.45 164.212 84.66 164.293L84.111 164.158L80.721 177.754C80.463 178.39 79.812 179.347 78.342 178.984C78.396 179.059 74.574 178.045 74.574 178.045L72 183.979L78.75 185.662C80.004 185.977 81.234 186.307 82.443 186.616L80.298 195.232L85.479 196.522L87.603 188.002C89.019 188.383 90.393 188.737 91.737 189.073L89.619 197.557L94.803 198.847L96.948 190.249C105.792 191.923 112.44 191.248 115.239 183.25C117.495 176.812 115.128 173.095 110.475 170.674C113.865 169.894 116.415 167.665 117.096 163.06V163.06ZM105.246 179.674C103.647 186.115 92.802 182.632 89.286 181.759L92.136 170.344C95.652 171.223 106.923 172.96 105.246 179.674ZM106.851 162.967C105.39 168.826 96.366 165.847 93.441 165.118L96.021 154.768C98.946 155.497 108.375 156.856 106.851 162.967Z" fill="white"/>
<path d="M170.34 524.122C196.884 524.122 218.401 502.604 218.401 476.061C218.401 449.518 196.884 428 170.34 428C143.797 428 122.279 449.518 122.279 476.061C122.279 502.604 143.797 524.122 170.34 524.122Z" fill="#005FFF"/>
<path fill-rule="evenodd" clip-rule="evenodd" d="M163.435 482.09V467.621H166.814C167.544 467.621 168.136 468.203 168.136 468.921V470.171C168.136 471.529 169.313 472.694 170.686 472.694C172.059 472.694 173.101 471.529 173.101 470.171V468.969C173.101 468.224 173.711 467.618 174.468 467.618H178.232V471.276C178.232 472.021 177.619 472.628 176.865 472.628H175.588C174.933 472.625 174.304 472.881 173.838 473.341C173.372 473.801 173.107 474.427 173.101 475.082C173.101 476.437 174.375 477.536 175.748 477.536H176.874C177.625 477.536 178.232 478.137 178.232 478.876V482.09H181.263C182.314 482.09 183.164 482.925 183.164 483.952V485.055C183.164 486.082 182.311 486.917 181.263 486.917H180.133C179.886 486.92 179.641 486.874 179.411 486.782C179.182 486.69 178.973 486.553 178.796 486.38C178.62 486.207 178.479 486.001 178.382 485.774C178.285 485.546 178.234 485.302 178.232 485.055V482.574H174.456C173.705 482.574 173.101 481.973 173.101 481.234V479.996C173.089 479.332 172.818 478.698 172.345 478.23C171.873 477.763 171.237 477.497 170.572 477.491C169.199 477.491 168.133 478.693 168.133 480.12V481.243C168.133 481.979 167.532 482.574 166.787 482.574H163.435V485.055C163.435 486.082 162.585 486.917 161.534 486.917H160.407C160.16 486.92 159.915 486.874 159.685 486.782C159.456 486.69 159.247 486.553 159.07 486.38C158.894 486.207 158.753 486.001 158.656 485.774C158.559 485.546 158.508 485.302 158.506 485.055V483.952C158.506 482.925 159.356 482.09 160.407 482.09H163.435ZM181.263 467.137H178.229V464.175C178.229 463.148 179.082 462.313 180.133 462.313H181.263C182.314 462.313 183.164 463.148 183.164 464.175V465.278C183.164 466.305 182.311 467.14 181.263 467.14V467.137ZM163.435 467.137H160.407C160.16 467.14 159.915 467.094 159.686 467.002C159.457 466.91 159.248 466.774 159.071 466.601C158.895 466.429 158.754 466.223 158.657 465.996C158.56 465.769 158.508 465.525 158.506 465.278V464.175C158.506 463.148 159.356 462.313 160.407 462.313H161.534C162.585 462.313 163.435 463.148 163.435 464.175V467.137ZM170.269 462.797C170.021 462.799 169.776 462.753 169.547 462.661C169.317 462.569 169.108 462.433 168.932 462.26C168.755 462.087 168.614 461.881 168.518 461.653C168.421 461.426 168.37 461.181 168.367 460.934V459.832C168.367 458.805 169.22 457.972 170.269 457.972H171.398C172.449 457.972 173.299 458.805 173.299 459.835V460.937C173.299 461.965 172.449 462.797 171.398 462.797H170.269ZM170.269 492.222C170.021 492.225 169.776 492.179 169.547 492.087C169.317 491.994 169.108 491.858 168.932 491.685C168.755 491.512 168.614 491.306 168.518 491.078C168.421 490.851 168.37 490.607 168.367 490.36V489.257C168.367 488.23 169.22 487.395 170.269 487.395H171.398C172.449 487.395 173.299 488.23 173.299 489.257V490.363C173.299 491.387 172.449 492.222 171.398 492.222H170.269ZM185.065 477.266C184.818 477.269 184.573 477.223 184.344 477.131C184.115 477.039 183.906 476.903 183.73 476.73C183.553 476.557 183.412 476.352 183.315 476.125C183.218 475.898 183.167 475.654 183.164 475.407V474.304C183.164 473.277 184.014 472.442 185.065 472.442H186.192C187.243 472.442 188.093 473.277 188.093 474.304V475.407C188.093 476.434 187.243 477.269 186.192 477.269L185.065 477.266ZM154.982 477.266C154.735 477.269 154.49 477.223 154.261 477.131C154.032 477.039 153.823 476.903 153.646 476.73C153.47 476.557 153.329 476.352 153.232 476.125C153.135 475.898 153.084 475.654 153.081 475.407V474.304C153.081 473.277 153.931 472.442 154.982 472.442H156.109C157.16 472.442 158.013 473.277 158.013 474.304V475.407C158.013 476.434 157.16 477.269 156.109 477.269L154.982 477.266ZM178.31 492.348C178.731 492.177 179.202 492.177 179.623 492.348C180.043 492.519 180.381 492.848 180.563 493.264C180.649 493.47 180.693 493.691 180.693 493.914C180.693 494.137 180.648 494.357 180.561 494.563C180.474 494.768 180.348 494.954 180.188 495.11C180.028 495.265 179.839 495.388 179.631 495.469C179.211 495.64 178.74 495.641 178.319 495.47C177.899 495.3 177.561 494.972 177.379 494.556C177.292 494.35 177.248 494.129 177.248 493.906C177.248 493.683 177.293 493.462 177.38 493.256C177.467 493.05 177.594 492.864 177.753 492.708C177.913 492.552 178.102 492.43 178.31 492.348V492.348ZM162.531 454.725C162.951 454.554 163.422 454.554 163.843 454.724C164.264 454.895 164.601 455.223 164.784 455.639C164.87 455.844 164.914 456.065 164.913 456.288C164.913 456.511 164.868 456.731 164.781 456.936C164.694 457.142 164.568 457.328 164.408 457.483C164.249 457.639 164.06 457.761 163.852 457.843C163.432 458.016 162.96 458.017 162.539 457.846C162.117 457.675 161.779 457.347 161.597 456.93C161.511 456.725 161.467 456.504 161.467 456.281C161.468 456.058 161.513 455.838 161.599 455.632C161.686 455.427 161.813 455.241 161.972 455.085C162.132 454.93 162.321 454.807 162.528 454.725H162.531ZM188.225 468.026C188.139 467.82 188.095 467.599 188.095 467.376C188.096 467.152 188.141 466.931 188.228 466.726C188.315 466.52 188.442 466.334 188.602 466.178C188.762 466.022 188.952 465.9 189.16 465.818C189.58 465.647 190.051 465.647 190.472 465.817C190.892 465.988 191.23 466.316 191.412 466.732C191.499 466.937 191.543 467.158 191.543 467.382C191.543 467.605 191.498 467.826 191.411 468.031C191.324 468.237 191.197 468.423 191.038 468.579C190.878 468.735 190.689 468.858 190.481 468.939C190.061 469.111 189.59 469.111 189.169 468.941C188.748 468.77 188.411 468.442 188.228 468.026H188.225ZM150.251 483.46C150.165 483.254 150.122 483.033 150.122 482.81C150.123 482.587 150.168 482.366 150.255 482.161C150.342 481.956 150.469 481.77 150.629 481.614C150.789 481.459 150.978 481.337 151.185 481.255C151.606 481.082 152.078 481.081 152.5 481.251C152.921 481.422 153.259 481.751 153.441 482.168C153.527 482.374 153.571 482.595 153.571 482.817C153.57 483.04 153.525 483.261 153.439 483.466C153.352 483.671 153.225 483.857 153.066 484.013C152.906 484.169 152.717 484.291 152.51 484.373C152.089 484.546 151.617 484.548 151.195 484.377C150.772 484.206 150.434 483.877 150.251 483.46V483.46ZM150.251 466.732C150.434 466.315 150.772 465.986 151.193 465.816C151.615 465.645 152.086 465.646 152.507 465.818C152.715 465.9 152.905 466.022 153.065 466.178C153.225 466.334 153.352 466.52 153.439 466.726C153.526 466.931 153.571 467.152 153.571 467.376C153.572 467.599 153.528 467.82 153.441 468.026C153.259 468.442 152.921 468.77 152.5 468.941C152.08 469.111 151.609 469.111 151.188 468.939C150.98 468.858 150.79 468.736 150.63 468.58C150.47 468.425 150.342 468.239 150.255 468.033C150.168 467.827 150.122 467.606 150.122 467.383C150.121 467.159 150.165 466.938 150.251 466.732V466.732ZM177.817 457.843C177.61 457.761 177.421 457.639 177.262 457.483C177.102 457.328 176.975 457.142 176.889 456.936C176.802 456.731 176.757 456.511 176.757 456.288C176.756 456.065 176.8 455.844 176.886 455.639C177.068 455.223 177.406 454.895 177.827 454.724C178.248 454.554 178.718 454.554 179.139 454.725C179.346 454.807 179.535 454.93 179.694 455.085C179.854 455.241 179.981 455.427 180.067 455.632C180.154 455.838 180.199 456.058 180.199 456.281C180.2 456.504 180.156 456.725 180.07 456.93C179.888 457.346 179.55 457.674 179.129 457.845C178.708 458.015 178.238 458.015 177.817 457.843ZM188.225 482.168C188.407 481.752 188.745 481.423 189.166 481.253C189.587 481.082 190.058 481.083 190.478 481.255C190.686 481.336 190.876 481.458 191.036 481.614C191.196 481.769 191.323 481.955 191.41 482.16C191.498 482.366 191.543 482.586 191.544 482.81C191.545 483.033 191.501 483.254 191.415 483.46C191.233 483.876 190.895 484.204 190.475 484.374C190.054 484.545 189.583 484.544 189.163 484.373C188.955 484.292 188.765 484.17 188.605 484.014C188.445 483.859 188.318 483.673 188.23 483.468C188.143 483.262 188.098 483.042 188.097 482.818C188.096 482.595 188.14 482.374 188.225 482.168V482.168ZM161.543 495.95C161.335 495.868 161.146 495.746 160.986 495.59C160.827 495.435 160.7 495.249 160.613 495.043C160.526 494.838 160.481 494.617 160.481 494.394C160.481 494.171 160.525 493.95 160.611 493.745C160.794 493.329 161.131 493.001 161.552 492.83C161.973 492.66 162.444 492.66 162.864 492.832C163.072 492.914 163.26 493.036 163.42 493.192C163.579 493.347 163.706 493.533 163.793 493.739C163.879 493.944 163.924 494.164 163.925 494.387C163.925 494.61 163.881 494.831 163.795 495.036C163.613 495.452 163.275 495.78 162.855 495.951C162.434 496.121 161.963 496.121 161.543 495.95V495.95ZM186.904 491.053C187.091 490.873 187.341 490.772 187.601 490.772C187.861 490.772 188.11 490.873 188.297 491.053C188.685 491.432 188.685 492.045 188.297 492.42C187.91 492.796 187.291 492.796 186.904 492.42C186.812 492.332 186.74 492.226 186.69 492.109C186.64 491.991 186.615 491.866 186.615 491.738C186.615 491.611 186.64 491.485 186.69 491.368C186.74 491.251 186.812 491.145 186.904 491.056V491.053ZM153.369 457.774C153.754 457.399 154.378 457.399 154.763 457.774C155.147 458.15 155.147 458.765 154.763 459.141C154.576 459.322 154.326 459.423 154.066 459.423C153.806 459.423 153.556 459.322 153.369 459.141C153.278 459.052 153.205 458.947 153.156 458.829C153.106 458.712 153.08 458.586 153.08 458.459C153.08 458.332 153.106 458.206 153.156 458.089C153.205 457.972 153.278 457.866 153.369 457.777V457.774ZM186.904 459.141C186.812 459.052 186.74 458.947 186.69 458.829C186.64 458.712 186.615 458.586 186.615 458.459C186.615 458.332 186.64 458.206 186.69 458.089C186.74 457.972 186.812 457.866 186.904 457.777C187.291 457.399 187.913 457.399 188.297 457.777C188.682 458.156 188.685 458.762 188.297 459.141C188.11 459.322 187.861 459.423 187.601 459.423C187.341 459.423 187.091 459.322 186.904 459.141V459.141ZM153.369 492.42C153.278 492.332 153.205 492.226 153.156 492.109C153.106 491.991 153.08 491.866 153.08 491.738C153.08 491.611 153.106 491.485 153.156 491.368C153.205 491.251 153.278 491.145 153.369 491.056C153.556 490.876 153.806 490.775 154.066 490.775C154.326 490.775 154.576 490.876 154.763 491.056C155.147 491.432 155.147 492.045 154.763 492.42C154.378 492.796 153.754 492.796 153.369 492.42ZM194.011 474.857C194.011 474.322 194.455 473.89 194.999 473.89C195.543 473.89 195.984 474.322 195.984 474.857C195.98 475.115 195.874 475.361 195.69 475.541C195.505 475.721 195.257 475.821 194.999 475.818C194.741 475.821 194.493 475.721 194.308 475.541C194.124 475.361 194.018 475.115 194.014 474.857H194.011ZM146.175 474.857C146.175 474.322 146.617 473.89 147.163 473.89C147.704 473.89 148.149 474.322 148.149 474.857C148.145 475.115 148.039 475.361 147.854 475.541C147.67 475.721 147.421 475.821 147.163 475.818C146.905 475.821 146.656 475.722 146.471 475.542C146.285 475.362 146.179 475.115 146.175 474.857V474.857ZM170.836 452.668C170.708 452.67 170.58 452.646 170.461 452.599C170.342 452.552 170.233 452.481 170.141 452.391C170.048 452.302 169.975 452.195 169.924 452.077C169.874 451.959 169.847 451.832 169.845 451.704C169.845 451.169 170.29 450.736 170.836 450.736C171.377 450.736 171.822 451.169 171.822 451.704C171.818 451.962 171.711 452.208 171.526 452.388C171.341 452.569 171.092 452.668 170.833 452.665L170.836 452.668ZM170.836 499.455C170.708 499.457 170.581 499.434 170.462 499.387C170.342 499.339 170.234 499.269 170.142 499.18C170.05 499.091 169.976 498.984 169.925 498.866C169.874 498.749 169.847 498.622 169.845 498.494C169.845 497.959 170.29 497.527 170.836 497.527C171.377 497.527 171.822 497.959 171.822 498.491C171.82 498.619 171.793 498.746 171.743 498.864C171.692 498.981 171.619 499.088 171.527 499.178C171.435 499.267 171.327 499.338 171.208 499.385C171.089 499.433 170.962 499.457 170.833 499.455H170.836ZM201.409 474.854C201.409 474.322 201.854 473.893 202.397 473.893C202.938 473.893 203.383 474.322 203.383 474.854C203.381 474.982 203.355 475.109 203.305 475.227C203.255 475.345 203.182 475.452 203.09 475.542C202.999 475.631 202.891 475.702 202.772 475.75C202.653 475.798 202.526 475.822 202.397 475.821C202.269 475.823 202.142 475.799 202.023 475.751C201.904 475.704 201.795 475.633 201.704 475.544C201.612 475.454 201.539 475.347 201.488 475.23C201.437 475.112 201.411 474.985 201.409 474.857V474.854ZM138.038 474.373C138.446 474.373 138.78 474.698 138.78 475.094C138.78 475.491 138.449 475.821 138.038 475.821C137.629 475.821 137.299 475.497 137.299 475.097C137.299 474.698 137.629 474.373 138.038 474.373V474.373ZM169.355 443.984C169.355 443.452 169.797 443.02 170.341 443.02C170.884 443.02 171.326 443.452 171.326 443.984C171.326 444.515 170.884 444.948 170.341 444.948C169.797 444.948 169.355 444.515 169.355 443.987V443.984ZM198.567 486.352C198.726 485.996 199.017 485.716 199.379 485.572C199.741 485.428 200.145 485.431 200.505 485.58C201.256 485.893 201.61 486.743 201.295 487.479C201.138 487.837 200.846 488.118 200.483 488.262C200.119 488.406 199.714 488.401 199.354 488.248C199.177 488.176 199.016 488.07 198.88 487.936C198.745 487.802 198.637 487.642 198.564 487.465C198.49 487.289 198.453 487.099 198.454 486.908C198.454 486.717 198.493 486.528 198.567 486.352ZM182.557 501.942C182.804 502.044 182.99 502.231 183.089 502.471C183.138 502.587 183.163 502.713 183.162 502.839C183.162 502.966 183.136 503.091 183.086 503.207C183.007 503.383 182.879 503.532 182.716 503.637C182.554 503.741 182.365 503.796 182.172 503.795C181.979 503.794 181.79 503.736 181.629 503.63C181.469 503.523 181.342 503.372 181.266 503.195C181.216 503.078 181.191 502.953 181.191 502.827C181.191 502.7 181.216 502.575 181.266 502.459C181.317 502.341 181.391 502.234 181.484 502.145C181.577 502.055 181.686 501.986 181.806 501.939C182.048 501.845 182.317 501.847 182.557 501.945V501.942ZM141.63 461.91C141.871 462.013 142.06 462.199 142.159 462.436C142.208 462.553 142.234 462.679 142.233 462.806C142.233 462.933 142.206 463.059 142.156 463.175C142.077 463.351 141.949 463.501 141.786 463.605C141.624 463.709 141.435 463.764 141.242 463.763C141.049 463.762 140.86 463.704 140.7 463.598C140.539 463.491 140.412 463.34 140.336 463.163C140.286 463.046 140.261 462.92 140.262 462.793C140.262 462.666 140.288 462.541 140.339 462.424C140.39 462.307 140.463 462.201 140.556 462.112C140.648 462.023 140.757 461.954 140.876 461.907C141.119 461.811 141.389 461.812 141.63 461.91ZM138.879 486.692C139.011 486.395 139.254 486.161 139.556 486.041C139.858 485.921 140.195 485.924 140.495 486.049C140.643 486.108 140.777 486.197 140.891 486.309C141.004 486.42 141.094 486.554 141.155 486.701C141.216 486.848 141.247 487.006 141.246 487.166C141.245 487.325 141.212 487.483 141.15 487.629C141.017 487.926 140.774 488.159 140.472 488.278C140.17 488.398 139.833 488.394 139.534 488.269C139.386 488.21 139.251 488.121 139.138 488.009C139.024 487.897 138.935 487.764 138.874 487.617C138.813 487.47 138.782 487.312 138.783 487.152C138.783 486.993 138.816 486.835 138.879 486.689V486.692ZM181.944 446.78C181.796 446.721 181.661 446.633 181.548 446.522C181.434 446.41 181.344 446.276 181.283 446.129C181.221 445.982 181.19 445.824 181.191 445.664C181.191 445.505 181.224 445.347 181.287 445.2C181.418 444.903 181.661 444.67 181.964 444.549C182.266 444.429 182.603 444.432 182.903 444.557C183.051 444.617 183.185 444.705 183.299 444.817C183.412 444.929 183.502 445.062 183.563 445.21C183.624 445.357 183.655 445.515 183.654 445.674C183.653 445.833 183.62 445.991 183.557 446.137C183.426 446.434 183.183 446.667 182.882 446.787C182.58 446.907 182.244 446.905 181.944 446.78ZM200.391 461.4C200.573 461.327 200.777 461.328 200.959 461.403C201.091 461.458 201.205 461.551 201.284 461.67C201.364 461.79 201.406 461.931 201.405 462.074C201.404 462.218 201.36 462.358 201.279 462.476C201.198 462.595 201.083 462.687 200.95 462.74C200.769 462.812 200.567 462.811 200.387 462.737C200.207 462.663 200.063 462.522 199.985 462.343C199.948 462.255 199.929 462.16 199.93 462.065C199.93 461.969 199.95 461.875 199.988 461.787C200.027 461.699 200.082 461.62 200.151 461.553C200.22 461.487 200.301 461.435 200.391 461.4V461.4ZM157.085 445.873C157.163 445.695 157.309 445.555 157.49 445.483C157.671 445.411 157.873 445.413 158.052 445.489C158.186 445.542 158.301 445.635 158.381 445.755C158.462 445.875 158.504 446.016 158.503 446.16C158.502 446.304 158.458 446.445 158.376 446.564C158.294 446.682 158.178 446.774 158.043 446.825C157.862 446.898 157.659 446.897 157.478 446.822C157.39 446.786 157.309 446.733 157.241 446.666C157.173 446.599 157.119 446.518 157.083 446.43C157.046 446.342 157.028 446.247 157.028 446.151C157.028 446.056 157.048 445.961 157.085 445.873V445.873ZM157.274 502.831C157.37 502.831 157.466 502.852 157.56 502.891C157.648 502.927 157.729 502.98 157.796 503.047C157.864 503.114 157.918 503.194 157.955 503.282C157.991 503.37 158.01 503.465 158.01 503.56C158.01 503.655 157.99 503.75 157.953 503.838C157.874 504.015 157.728 504.155 157.548 504.227C157.367 504.299 157.165 504.297 156.986 504.222C156.897 504.187 156.817 504.134 156.749 504.067C156.681 504 156.627 503.92 156.59 503.832C156.553 503.744 156.534 503.649 156.534 503.554C156.534 503.459 156.553 503.364 156.589 503.276C156.647 503.143 156.743 503.03 156.865 502.951C156.987 502.872 157.129 502.83 157.274 502.831V502.831ZM192.244 497.725C192.057 497.906 191.807 498.008 191.546 498.008C191.285 498.008 191.035 497.906 190.848 497.725C190.756 497.636 190.684 497.53 190.634 497.413C190.584 497.296 190.559 497.17 190.559 497.043C190.559 496.916 190.584 496.79 190.634 496.673C190.684 496.556 190.756 496.45 190.848 496.361C191.035 496.178 191.286 496.077 191.548 496.079C191.808 496.078 192.058 496.179 192.244 496.361C192.336 496.45 192.409 496.556 192.459 496.673C192.509 496.791 192.535 496.917 192.535 497.045C192.535 497.172 192.509 497.298 192.459 497.416C192.409 497.533 192.336 497.639 192.244 497.728V497.725ZM146.115 452.13C146.396 451.858 146.771 451.706 147.162 451.706C147.553 451.706 147.928 451.858 148.209 452.13C148.345 452.263 148.454 452.422 148.528 452.598C148.602 452.773 148.641 452.962 148.641 453.153C148.641 453.344 148.602 453.532 148.528 453.708C148.454 453.884 148.345 454.043 148.209 454.176C147.929 454.45 147.553 454.604 147.162 454.604C146.77 454.604 146.394 454.45 146.115 454.176C145.978 454.043 145.87 453.884 145.795 453.708C145.721 453.532 145.683 453.344 145.683 453.153C145.683 452.962 145.721 452.773 145.795 452.598C145.87 452.422 145.978 452.263 146.115 452.13V452.13ZM192.749 452.4C192.888 452.263 193.076 452.186 193.272 452.186C193.467 452.186 193.655 452.263 193.794 452.4C193.862 452.467 193.916 452.546 193.953 452.634C193.99 452.722 194.009 452.816 194.009 452.911C194.009 453.006 193.99 453.1 193.953 453.188C193.916 453.276 193.862 453.355 193.794 453.422C193.654 453.558 193.467 453.633 193.272 453.633C193.077 453.633 192.889 453.558 192.749 453.422C192.68 453.356 192.626 453.276 192.588 453.189C192.551 453.101 192.532 453.006 192.532 452.911C192.532 452.816 192.551 452.721 192.588 452.634C192.626 452.546 192.68 452.467 192.749 452.4V452.4ZM146.391 496.292C146.531 496.155 146.718 496.078 146.914 496.078C147.11 496.078 147.297 496.155 147.437 496.292C147.505 496.358 147.559 496.438 147.596 496.526C147.633 496.613 147.653 496.707 147.653 496.803C147.653 496.898 147.633 496.992 147.596 497.08C147.559 497.168 147.505 497.247 147.437 497.313C147.297 497.449 147.109 497.525 146.914 497.525C146.719 497.525 146.531 497.449 146.391 497.313C146.323 497.247 146.269 497.168 146.232 497.08C146.195 496.992 146.175 496.898 146.175 496.803C146.175 496.707 146.195 496.613 146.232 496.526C146.269 496.438 146.323 496.358 146.391 496.292V496.292ZM170.587 509.103C170.264 509.107 169.953 508.981 169.722 508.756C169.491 508.53 169.359 508.222 169.355 507.899C169.355 507.232 169.905 506.691 170.587 506.691C171.269 506.691 171.819 507.232 171.819 507.899C171.815 508.222 171.683 508.53 171.452 508.756C171.221 508.981 170.91 509.107 170.587 509.103V509.103Z" fill="white"/>
<defs>
<filter id="filter0_d" x="185" y="162" width="248" height="248" filterUnits="userSpaceOnUse" color-interpolation-filters="sRGB">
<feFlood flood-opacity="0" result="BackgroundImageFix"/>
<feColorMatrix in="SourceAlpha" type="matrix" values="0 0 0 0 0 0 0 0 0 0 0 0 0 0 0 0 0 0 127 0"/>
<feOffset dy="8"/>
<feGaussianBlur stdDeviation="8"/>
<feColorMatrix type="matrix" values="0 0 0 0 0.0666667 0 0 0 0 0.2 0 0 0 0 0.333333 0 0 0 0.08 0"/>
<feBlend mode="normal" in2="BackgroundImageFix" result="effect1_dropShadow"/>
<feBlend mode="normal" in="SourceGraphic" in2="effect1_dropShadow" result="shape"/>
</filter>
<filter id="filter1_d" x="589" y="0" width="248" height="248" filterUnits="userSpaceOnUse" color-interpolation-filters="sRGB">
<feFlood flood-opacity="0" result="BackgroundImageFix"/>
<feColorMatrix in="SourceAlpha" type="matrix" values="0 0 0 0 0 0 0 0 0 0 0 0 0 0 0 0 0 0 127 0"/>
<feOffset dy="8"/>
<feGaussianBlur stdDeviation="8"/>
<feColorMatrix type="matrix" values="0 0 0 0 0.0666667 0 0 0 0 0.2 0 0 0 0 0.333333 0 0 0 0.08 0"/>
<feBlend mode="normal" in2="BackgroundImageFix" result="effect1_dropShadow"/>
<feBlend mode="normal" in="SourceGraphic" in2="effect1_dropShadow" result="shape"/>
</filter>
<filter id="filter2_d" x="620" y="297" width="212" height="212" filterUnits="userSpaceOnUse" color-interpolation-filters="sRGB">
<feFlood flood-opacity="0" result="BackgroundImageFix"/>
<feColorMatrix in="SourceAlpha" type="matrix" values="0 0 0 0 0 0 0 0 0 0 0 0 0 0 0 0 0 0 127 0"/>
<feOffset dy="8"/>
<feGaussianBlur stdDeviation="8"/>
<feColorMatrix type="matrix" values="0 0 0 0 0.0666667 0 0 0 0 0.2 0 0 0 0 0.333333 0 0 0 0.08 0"/>
<feBlend mode="normal" in2="BackgroundImageFix" result="effect1_dropShadow"/>
<feBlend mode="normal" in="SourceGraphic" in2="effect1_dropShadow" result="shape"/>
</filter>
<filter id="filter3_d" x="74" y="388" width="192" height="192" filterUnits="userSpaceOnUse" color-interpolation-filters="sRGB">
<feFlood flood-opacity="0" result="BackgroundImageFix"/>
<feColorMatrix in="SourceAlpha" type="matrix" values="0 0 0 0 0 0 0 0 0 0 0 0 0 0 0 0 0 0 127 0"/>
<feOffset dy="8"/>
<feGaussianBlur stdDeviation="8"/>
<feColorMatrix type="matrix" values="0 0 0 0 0.0666667 0 0 0 0 0.2 0 0 0 0 0.333333 0 0 0 0.08 0"/>
<feBlend mode="normal" in2="BackgroundImageFix" result="effect1_dropShadow"/>
<feBlend mode="normal" in="SourceGraphic" in2="effect1_dropShadow" result="shape"/>
</filter>
<filter id="filter4_d" x="342" y="0" width="192" height="192" filterUnits="userSpaceOnUse" color-interpolation-filters="sRGB">
<feFlood flood-opacity="0" result="BackgroundImageFix"/>
<feColorMatrix in="SourceAlpha" type="matrix" values="0 0 0 0 0 0 0 0 0 0 0 0 0 0 0 0 0 0 127 0"/>
<feOffset dy="8"/>
<feGaussianBlur stdDeviation="8"/>
<feColorMatrix type="matrix" values="0 0 0 0 0.0666667 0 0 0 0 0.2 0 0 0 0 0.333333 0 0 0 0.08 0"/>
<feBlend mode="normal" in2="BackgroundImageFix" result="effect1_dropShadow"/>
<feBlend mode="normal" in="SourceGraphic" in2="effect1_dropShadow" result="shape"/>
</filter>
<filter id="filter5_d" x="455" y="194" width="180" height="180" filterUnits="userSpaceOnUse" color-interpolation-filters="sRGB">
<feFlood flood-opacity="0" result="BackgroundImageFix"/>
<feColorMatrix in="SourceAlpha" type="matrix" values="0 0 0 0 0 0 0 0 0 0 0 0 0 0 0 0 0 0 127 0"/>
<feOffset dy="8"/>
<feGaussianBlur stdDeviation="8"/>
<feColorMatrix type="matrix" values="0 0 0 0 0.0666667 0 0 0 0 0.2 0 0 0 0 0.333333 0 0 0 0.08 0"/>
<feBlend mode="normal" in2="BackgroundImageFix" result="effect1_dropShadow"/>
<feBlend mode="normal" in="SourceGraphic" in2="effect1_dropShadow" result="shape"/>
</filter>
<filter id="filter6_d" x="307" y="359" width="312" height="312" filterUnits="userSpaceOnUse" color-interpolation-filters="sRGB">
<feFlood flood-opacity="0" result="BackgroundImageFix"/>
<feColorMatrix in="SourceAlpha" type="matrix" values="0 0 0 0 0 0 0 0 0 0 0 0 0 0 0 0 0 0 127 0"/>
<feOffset dy="8"/>
<feGaussianBlur stdDeviation="8"/>
<feColorMatrix type="matrix" values="0 0 0 0 0.0666667 0 0 0 0 0.2 0 0 0 0 0.333333 0 0 0 0.08 0"/>
<feBlend mode="normal" in2="BackgroundImageFix" result="effect1_dropShadow"/>
<feBlend mode="normal" in="SourceGraphic" in2="effect1_dropShadow" result="shape"/>
</filter>
<filter id="filter7_d" x="0" y="81" width="192" height="192" filterUnits="userSpaceOnUse" color-interpolation-filters="sRGB">
<feFlood flood-opacity="0" result="BackgroundImageFix"/>
<feColorMatrix in="SourceAlpha" type="matrix" values="0 0 0 0 0 0 0 0 0 0 0 0 0 0 0 0 0 0 127 0"/>
<feOffset dy="8"/>
<feGaussianBlur stdDeviation="8"/>
<feColorMatrix type="matrix" values="0 0 0 0 0.0666667 0 0 0 0 0.2 0 0 0 0 0.333333 0 0 0 0.08 0"/>
<feBlend mode="normal" in2="BackgroundImageFix" result="effect1_dropShadow"/>
<feBlend mode="normal" in="SourceGraphic" in2="effect1_dropShadow" result="shape"/>
</filter>
</defs>
</svg>
