<?xml version="1.0" standalone="no"?>
<!DOCTYPE svg PUBLIC "-//W3C//DTD SVG 20010904//EN" "http://www.w3.org/TR/2001/REC-SVG-20010904/DTD/svg10.dtd">
<!-- Created using Krita: http://krita.org -->
<svg xmlns="http://www.w3.org/2000/svg" 
    xmlns:xlink="http://www.w3.org/1999/xlink"
    xmlns:krita="http://krita.org/namespaces/svg/krita"
    xmlns:sodipodi="http://sodipodi.sourceforge.net/DTD/sodipodi-0.dtd"
    width="479.52pt"
    height="399.6pt"
    viewBox="0 0 479.52 399.6">
<defs/>
<g id="em129mq062ws2" transform="matrix(2.0912833616 0 0 1.7427361347 -153.89385777 18.22778731)" fill="none">
  <path id="em129mq062ws3" transform="matrix(0.81527829479 0 0 0.81527829479 89.274085529 54.652597035)" fill="#3c4cec" fill-rule="evenodd" d="M0.294304 0.395C-0.021696 0.845 -0.118696 6.243 0.180304 6.716C0.312304 6.926 1.1523 6.982 5.3853 7.063C15.8633 7.264 15.4283 5.864 15.8733 40.8C16.1783 64.754 15.6923 102.819 15.0263 107.224C14.3853 111.459 13.5863 112.817 11.2763 113.597C10.9963 113.691 8.6423 113.813 6.0453 113.867C0.285304 113.988 0.850304 113.606 0.850304 117.383C0.850304 121.315 0.434304 121.099 7.3623 120.767C13.8213 120.457 34.0883 120.558 40.5173 120.932C52.1023 121.607 51.8843 121.601 57.5173 121.397C73.3283 120.825 83.4993 118.98 90.6833 115.381C97.4383 111.998 102.344 103.834 104.011 93.203C104.233 91.789 104.234 86.384 104.012 84.832C103.206 79.177 101.836 75.404 99.2223 71.648C94.3423 64.632 86.5633 59.932 73.6423 56.19C71.9983 55.714 71.9883 55.736 74.3083 54.893C75.3853 54.501 77.0443 53.814 77.9953 53.365C78.9463 52.917 79.7553 52.55 79.7933 52.55C79.8303 52.55 80.7403 52.047 81.8143 51.433C89.8253 46.85 94.4313 41.104 96.4173 33.216C97.4173 29.246 97.0773 22.444 95.6603 18.05C93.1693 10.327 86.7303 4.572 77.9333 2.207C71.0683 0.361 65.4453 -0.039 48.8223 0.137C31.3393 0.322 13.5243 0.327 6.5023 0.15L0.571304 0L0.294304 0.395M195.127 1.675C195.086 1.743 195.025 4.612 194.993 8.05L194.933 14.3L195.85 14.3L196.767 14.3L196.85 12.866C196.97 10.798 197.341 10.484 200.088 10.124C205.148 9.461 215.846 9.462 217.657 10.127C221.419 11.506 223.517 15.021 223.402 19.752C223.299 23.979 221.3 26.61 217.6 27.388C215.68 27.792 198.143 27.715 197.684 27.3C197.002 26.684 196.798 26.041 196.717 24.258L196.64 22.55L195.745 22.55L194.85 22.55L194.814 30.216C194.793 34.433 194.775 38.389 194.772 39.008L194.767 40.133L195.683 40.133L196.6 40.133L196.683 38.326C196.807 35.635 195.883 35.883 205.779 35.883C218.105 35.883 219.541 35.602 222.602 32.587C225.206 30.023 226.195 26.838 226.237 20.883C226.289 13.429 223.324 8.428 217.907 6.83C216.429 6.395 213.518 6.212 205.761 6.071C196.608 5.903 196.852 5.984 196.851 3.109C196.85 2.026 196.797 1.732 196.586 1.651C196.215 1.508 195.218 1.525 195.127 1.675M113.517 4.698C113.206 4.912 113.062 8.217 113.333 8.925L113.508 9.383L116.804 9.387C121.015 9.391 121.543 9.583 122.327 11.389C123.093 13.154 123.085 12.758 123.092 46.966L123.1 79.3L122.722 79.908C122.072 80.953 121.47 81.095 117.25 81.204C112.715 81.322 113.015 81.151 113.022 83.612C113.03 86.352 112.558 86.143 118.221 85.908C124.055 85.665 153.612 85.654 168.391 85.888C178.901 86.055 179.022 86.054 179.677 85.72C180.538 85.28 180.748 84.844 181.684 81.55C181.879 80.862 182.255 79.587 182.519 78.716C182.782 77.845 183.533 75.333 184.187 73.133C184.841 70.933 185.52 68.689 185.696 68.147C186.214 66.555 186.191 66.496 184.725 65.642C183.142 64.719 182.878 64.707 182.161 65.519C181.852 65.869 181.213 66.6 180.741 67.144C180.268 67.688 179.71 68.321 179.5 68.55C168.084 81.006 167.239 81.432 153.933 81.455C146.799 81.467 145.925 81.407 143.985 80.782C141.789 80.073 140.929 77.864 140.757 72.496C140.706 70.921 140.591 68.245 140.501 66.55C140.411 64.854 140.291 59.51 140.234 54.675L140.131 45.883L142.949 45.972C155.385 46.364 157.837 47.828 160.173 56.255C160.501 57.44 160.569 57.462 162.632 57.059C165.116 56.573 164.949 56.99 164.587 52.189C164.259 47.834 164.149 35.53 164.407 32.019L164.538 30.238L163.902 30.056C162.895 29.769 160.068 29.633 159.796 29.859C159.669 29.964 159.521 30.518 159.466 31.092C159.112 34.836 156.578 38.951 153.72 40.424C151.748 41.441 150.215 41.668 144.217 41.828L140.166 41.937L140.263 27.952C140.316 20.26 140.402 12.821 140.455 11.421L140.552 8.875L143.493 8.967C157.407 9.405 157.423 9.406 159.698 10.272C162.732 11.427 164.202 12.338 167.039 14.822C169.054 16.585 176.683 24.1 177.55 25.175C178.117 25.879 178.553 25.87 180.028 25.127C181.435 24.419 181.484 24.318 181.056 23C180.871 22.432 179.762 18.118 178.59 13.415C177.063 7.284 176.385 4.83 176.197 4.744C176.052 4.678 171.096 4.663 165.183 4.712C150.098 4.835 119.626 4.796 116.433 4.649C114.674 4.568 113.682 4.585 113.517 4.698M51.6713 6.291C57.1973 7.414 62.7673 10.109 65.7863 13.122C74.4473 21.762 72.9003 41.24 62.9203 49.211C60.7213 50.968 57.8633 52.119 53.4333 53.032C50.6923 53.597 45.3703 53.965 42.7673 53.77L40.9333 53.633L40.8863 39.3C40.8143 17.503 41.0733 8.39 41.7933 7.426C42.9063 5.935 47.3883 5.42 51.6713 6.291M207.984 43.885C198.001 45.468 191.967 57.306 194.621 70.101C197.535 84.153 213.216 89.45 221.6 79.215C225.967 73.884 227.461 61.257 224.528 54.466C224.449 54.283 224.254 53.833 224.096 53.466C221.24 46.851 214.512 42.849 207.984 43.885M213.285 52.455C220.114 53.657 223.767 57.523 223.767 63.55C223.767 78.064 199.221 80.631 196.361 66.416C194.779 58.553 204.125 50.843 213.285 52.455M51.4333 59.953C69.0273 62.401 77.1663 72.144 76.6323 90.116C76.1373 106.771 68.3713 115.443 53.9333 115.462C46.0483 115.473 42.9223 112.084 41.2433 101.707C40.9923 100.159 40.9543 97.73 40.8973 79.733L40.8333 59.501L45.2163 59.599C47.6493 59.654 50.4163 59.811 51.4333 59.953M241.683 73.102C241.683 73.131 241.927 73.374 242.225 73.643L242.767 74.133L242.277 73.591C241.821 73.086 241.683 72.973 241.683 73.102M194.532 88.006C194.53 90.916 194.479 93.803 194.418 94.423L194.307 95.55L195.328 95.55L196.35 95.55L196.352 94.341C196.355 93.013 196.543 92.498 197.204 92.007C197.93 91.468 199.312 92.224 206.232 96.946L210.363 99.765L209.732 100.132C209.384 100.334 207.712 101.345 206.017 102.38C196.396 108.252 196.183 108.316 196.183 105.358L196.183 104.55L195.28 104.55L194.376 104.55L194.366 112.8L194.357 121.05L195.27 121.05L196.183 121.05L196.183 120.207C196.183 117.482 195.8 117.823 208.422 109.306L212.577 106.502L217.646 106.589C223.715 106.695 223.242 106.5 223.325 108.93C223.388 110.781 223.439 110.878 224.35 110.878C225.302 110.878 225.266 111.197 225.281 102.608L225.295 94.583L224.669 94.483C223.638 94.319 223.566 94.41 223.483 95.984C223.362 98.299 223.157 98.368 216.422 98.378L212.412 98.383L210.839 97.28C209.441 96.299 206.696 94.301 206.018 93.77C205.88 93.662 205.279 93.207 204.683 92.758C204.087 92.309 202.887 91.399 202.017 90.735C201.146 90.072 200.215 89.365 199.949 89.164C196.867 86.844 196.35 86.022 196.35 83.444L196.35 82.716L195.442 82.716L194.535 82.716L194.532 88.006M113.88 93.683C113.391 94.116 111.089 101.221 111.378 101.404C112.298 101.988 112.616 101.846 114.487 100.017C117.439 97.129 117.474 97.116 122.39 96.938L125.35 96.83L125.331 105.482C125.321 110.24 125.264 115.108 125.206 116.3L125.1 118.466L124.517 118.758C124.088 118.972 123.525 119.049 122.392 119.049L120.85 119.05L120.85 119.8L120.85 120.55L128.85 120.55L136.85 120.55L136.85 119.8L136.85 119.05L135.458 119.05C132.446 119.05 132.68 119.997 132.561 107.323L132.463 96.831L135.282 96.946C138.701 97.086 140.081 97.296 140.85 97.793C141.505 98.216 143.825 100.487 144.481 101.347C145.073 102.123 146.694 101.87 146.431 101.042C146.38 100.881 146.269 100.348 146.185 99.857C146.101 99.367 145.85 98.066 145.626 96.966C145.403 95.866 145.171 94.686 145.111 94.343C144.943 93.382 144.525 93.259 143.469 93.86C141.466 95.002 134.623 95.404 123.199 95.052C116.876 94.857 116.26 94.78 115.35 94.067C114.534 93.429 114.251 93.354 113.88 93.683M163.933 94.796C153.071 96.157 146.592 104.552 150.166 112.633C151.98 116.734 155.66 119.174 162.017 120.489C174.235 123.018 185.683 116.998 185.683 108.044C185.683 99.117 176.089 93.273 163.933 94.796M170.057 96.925C181.75 101.252 180.253 118.971 168.183 119.106C165.869 119.132 162.513 118.075 161.683 117.06C161.637 117.004 161.285 116.713 160.901 116.413C158.532 114.57 157.017 110.97 157.017 107.188C157.017 99.75 163.628 94.546 170.057 96.925"/>
  <path id="em129mq062ws4" transform="translate(186.15681641, 80.051975709)" fill="#3838f0" fill-rule="evenodd" d="M0.138184 0.0690243C0.437184 0.106024 0.887184 0.105024 1.13818 0.0670243C1.38818 0.0290243 1.14318 -0.000975709 0.593184 2.42909e-5C0.0431836 0.00102429 -0.161816 0.0320243 0.138184 0.0690243"/>
  <path id="em129mq062ws5" transform="translate(186.15681641, 80.051975709)" fill="#3838f0" fill-rule="evenodd" d="M0.138184 0.0690243C0.437184 0.106024 0.887184 0.105024 1.13818 0.0670243C1.38818 0.0290243 1.14318 -0.000975709 0.593184 2.42909e-5C0.0431836 0.00102429 -0.161816 0.0320243 0.138184 0.0690243"/>
  <path id="em129mq062ws6" transform="translate(186.15681641, 80.051975709)" fill="#3838f0" fill-rule="evenodd" d="M0.138184 0.0690243C0.437184 0.106024 0.887184 0.105024 1.13818 0.0670243C1.38818 0.0290243 1.14318 -0.000975709 0.593184 2.42909e-5C0.0431836 0.00102429 -0.161816 0.0320243 0.138184 0.0690243"/>
 </g><g id="euub4yatt6a16" transform="matrix(0.68502856202 0 0 0.57085712892 7.10542726e-15 0)" opacity="0" fill="none">
  <rect id="euub4yatt6a17" fill="#4550e6" width="700" height="700"/>
 </g>
</svg>
